<svg width="90" height="91" viewBox="0 0 90 91" fill="none" xmlns="http://www.w3.org/2000/svg">
    <path class="icon-colored-path"
          d="M53.652 40.1951C54.9924 40.1951 56.0852 39.1023 56.0852 37.7618C56.0852 36.4214 54.9924 35.3286 53.652 35.3286C52.3115 35.3286 51.2188 36.4214 51.2188 37.7618C51.2188 39.1023 52.3115 40.1951 53.652 40.1951ZM51.7517 38.0821C51.7517 38.0821 51.6494 38.0014 51.6709 37.8695C51.6925 37.7403 51.854 37.5088 51.7813 37.2289C51.7813 37.2289 51.7732 37.1266 51.8486 37.1616C51.9239 37.1966 51.9913 37.1266 52.0128 37.0809C52.0128 37.0809 53.4232 37.2101 53.9561 37.1212C53.9561 37.1212 54.0046 37.1347 53.9561 37.1966C53.9077 37.2585 53.8673 37.3796 53.9911 37.3123C54.1149 37.2451 54.1284 37.3608 54.1203 37.4281C54.1203 37.4281 54.1284 37.5034 54.1203 37.5788C54.1203 37.5788 54.0988 37.6946 54.1876 37.673C54.1876 37.673 54.2415 37.6865 54.2361 37.5304C54.228 37.3742 54.228 37.2316 54.4003 37.2316V36.3245C54.3114 36.3084 54.158 36.2815 54.053 36.2761C53.8565 36.268 53.7247 36.3434 53.652 36.3999C53.5147 36.5237 53.5012 36.4403 53.5497 36.3649C53.5981 36.2895 53.6251 36.2357 53.8081 36.0715C53.9481 35.9477 54.2576 35.9827 54.4003 36.0096V35.7458H54.551V37.3446C54.5618 37.3823 54.5671 37.4308 54.5644 37.4981C54.5644 37.4981 54.551 37.6353 54.6317 37.5923C54.7125 37.5519 54.6587 37.4362 54.7825 37.3608C54.9063 37.2854 55.1108 36.992 55.1162 36.8978C55.1243 36.8036 55.1243 36.6583 55.1243 36.6583C55.1243 36.6583 55.2051 36.6933 55.2535 36.739C55.302 36.7875 55.485 36.8628 55.4096 37.0943C55.4096 37.0943 55.2804 37.2854 55.2589 37.3743C55.2374 37.4631 55.1835 37.5573 55.1351 37.6326C55.0866 37.708 55.0597 37.8453 55.0947 38.0821C55.1297 38.3217 55.0274 38.4913 54.979 38.6151C54.9305 38.7389 54.9386 38.8197 55.0139 38.9489C55.0893 39.0781 55.232 39.3445 55.1162 39.3984C55.0005 39.4522 55.0139 39.3714 54.9467 39.2692C54.8794 39.1669 54.7286 38.9408 54.5375 38.9408C54.3464 38.9408 54.2791 38.9946 54.2253 39.0215C54.1715 39.0484 54.0692 39.0888 53.9454 39.0754C53.8216 39.0619 53.7408 39.1561 53.687 39.218C53.6331 39.2799 53.5632 39.463 53.4205 39.4576C53.4205 39.4576 53.3586 39.4791 53.3532 39.288C53.3451 39.0969 53.2509 39.1938 53.189 39.1776C53.1271 39.1642 53.0787 39.1642 52.9845 39.0215C52.8903 38.8789 52.8606 38.8789 52.7126 38.9273C52.5619 38.9758 52.1931 38.9892 51.8271 38.5101C51.819 38.5101 51.7302 38.3405 51.7517 38.0821Z"
          fill="#006747"></path>
    <path class="icon-colored-path"
          d="M54.8147 38.5345C54.8147 38.4187 54.699 38.3245 54.5455 38.3057V38.7606C54.699 38.739 54.8147 38.6502 54.8147 38.5345Z"
          fill="#006747"></path>
    <path class="icon-colored-path"
          d="M54.3949 38.7525V38.311C54.2603 38.3406 54.1661 38.4268 54.1661 38.5344C54.1661 38.6394 54.263 38.7255 54.3949 38.7525Z"
          fill="#006747"></path>
    <path class="icon-colored-path"
          d="M36.9558 28.026L35.0501 25.9237L37.3919 19.356L27.4194 22.6802C27.2229 22.7448 27.0641 22.8982 26.9887 23.0894L12.9061 59.1313C12.7662 59.492 12.9411 59.8931 13.2991 60.0385L21.7454 63.3466C22.1061 63.4838 22.5018 63.3116 22.6444 62.9563L31.2092 39.2315C31.1742 43.3768 30.0006 56.2028 29.6615 65.9118C29.648 66.2805 29.928 66.5981 30.294 66.6278L44.1156 67.8283V44.8249L35.4727 29.9236L36.9558 28.026ZM40.751 55.441C41.1332 55.441 41.4455 55.6752 41.4455 55.9632C41.4455 56.2512 41.1332 56.4854 40.751 56.4854H33.6128C33.2306 56.4854 32.9184 56.2512 32.9211 55.9632C32.9211 55.6752 33.2306 55.441 33.6128 55.441H40.751Z"
          fill="#006747"></path>
    <path class="icon-colored-path"
          d="M46.0508 43.0941C46.0427 43.1291 46.0912 43.1479 46.11 43.1156L53.7192 29.9963C53.7192 29.9828 53.7166 29.9747 53.7166 29.9613L52.1985 28.0178C52.1985 28.0017 52.1985 27.9936 52.2012 27.9775L54.1768 25.7972C54.1795 25.7864 54.1822 25.7757 54.1822 25.7649L52.0101 19.7005C51.8082 17.8943 45.6497 17.8943 44.9392 17.8997C44.2851 17.9051 39.0526 17.9966 38.0567 19.4044C37.9759 19.5174 36.1106 24.8066 35.828 25.598C35.7876 25.7111 35.8145 25.8349 35.8953 25.9237L37.5856 27.7891C37.6933 27.9075 37.6987 28.0851 37.6018 28.2117L36.3609 29.7998C36.2775 29.9047 36.2694 30.0501 36.3367 30.1658L43.7656 42.973C42.6701 38.0283 39.8035 24.1068 39.0956 20.6668C38.9907 20.1607 39.2921 19.6628 39.7847 19.512C40.7833 19.2079 42.5598 18.9118 44.9526 18.8903C47.3266 18.8687 49.1058 19.1325 50.1125 19.4178C50.6185 19.5605 50.9253 20.0665 50.8177 20.5807C50.0856 24.1014 47.1167 38.3244 46.0508 43.0941Z"
          fill="#006747"></path>
    <path class="icon-colored-path"
          d="M45.7091 45.0456V67.8363C45.7172 67.8363 45.7226 67.8363 45.7306 67.8363L59.6275 66.6304C59.9936 66.6008 60.2735 66.2859 60.26 65.9144C59.9209 56.2054 58.7447 43.3767 58.7124 39.2342L67.2771 62.9589C67.4198 63.3142 67.8155 63.4865 68.1761 63.3492L76.6225 60.0411C76.9805 59.8985 77.1554 59.4974 77.0154 59.134L62.9329 23.092C62.8548 22.9009 62.6987 22.7475 62.5022 22.6829L52.562 19.3667L54.901 25.9237L52.9953 28.0259L54.4784 29.9263L45.7091 45.0456ZM53.6521 34.914C55.224 34.914 56.4972 36.1872 56.4972 37.7592C56.4972 39.3311 55.224 40.6043 53.6521 40.6043C52.0802 40.6043 50.8071 39.3311 50.8071 37.7592C50.8071 36.1899 52.0802 34.914 53.6521 34.914ZM56.3087 56.4827H49.1706C48.7883 56.4827 48.4761 56.2485 48.4761 55.9605C48.4761 55.6725 48.7883 55.4383 49.1706 55.4383H56.3087C56.691 55.4383 57.0005 55.6725 57.0005 55.9605C57.0032 56.2512 56.691 56.4827 56.3087 56.4827Z"
          fill="#006747"></path>
</svg>